#!OML:ASF X:\für Bonn\!DataBase\2005_08_10_Bjorn_Final\c3d\bjorn.ASF
:FULLY-SPECIFIED
:DEGREES
78
root 4.94322 23.3326 -14.5697 10.2979 -9.24257 1.24731
lowerback 6.04826 0.753349 -2.8314
upperback 5.51513 0.913679 -3.15799
thorax 2.31262 0.419637 -1.70552
lowerneck 0.291557 -0.817751 1.89106
upperneck 5.3491 -1.13558 0.410791
head 1.59473 -0.523115 -0.203103
rclavicle -2.78299e-015 4.77083e-015
rhumerus -15.6833 1.93998 -82.236
rradius 101.81
rwrist -189.95
rhand 2.44505e-014 -4.33152e-013
rfingers 7.12502
rthumb 25.5904 -28.3008
lclavicle -2.78299e-015 4.77083e-015
lhumerus -2.62402 -24.0651 76.1176
lradius 88.5124
lwrist 3.25569
lhand 7.38087e-013 -1.05952e-012
lfingers 7.12502
lthumb 25.5904 28.3008
rfemur -28.2492 -8.04533 16.6657
rtibia 39.5372
rfoot 7.43793 11.8086
rtoes -7.08328
lfemur -27.5324 9.0226 -20.852
ltibia 35.7674
lfoot 8.65401 -2.8372
ltoes -23.7731
79
root 4.94931 23.2245 -14.427 10.483 -9.10756 1.1232
lowerback 6.4106 0.720736 -2.77211
upperback 5.80164 0.864576 -3.10225
thorax 2.40941 0.394257 -1.6834
lowerneck 0.182206 -0.788564 1.73533
upperneck 4.96282 -1.1006 0.588057
head 1.49234 -0.508466 -0.120915
rclavicle -3.97569e-015 5.80451e-014
rhumerus -16.2463 1.73097 -82.6885
rradius 100.291
rwrist -189.267
rhand -8.0309e-014 -9.34288e-013
rfingers 7.12502
rthumb 25.5904 -28.3008
lclavicle -3.97569e-015 5.80451e-014
lhumerus -3.23434 -24.2492 76.9765
lradius 87.1826
lwrist 3.14702
lhand 8.49606e-013 -1.58074e-012
lfingers 7.12502
lthumb 25.5904 28.3008
rfemur -29.2058 -7.98471 16.9826
rtibia 39.2847
rfoot 7.35265 12.2638
rtoes -5.13773
lfemur -28.5116 9.06419 -20.674
ltibia 35.6334
lfoot 8.09678 -2.53906
ltoes -24.2307
80
root 4.9549 23.1036 -14.2837 10.7278 -8.98194 0.973872
lowerback 6.68457 0.695774 -2.70509
upperback 6.09988 0.830777 -3.02215
thorax 2.56795 0.375946 -1.63984
lowerneck 0.0347455 -0.782803 1.57971
upperneck 4.56236 -1.09329 0.687536
head 1.39195 -0.508786 -0.0636501
rclavicle 1.98785e-014 -7.95139e-015
rhumerus -16.7428 1.41629 -83.0459
rradius 98.8927
rwrist -188.524
rhand 2.89828e-013 1.86062e-013
rfingers 7.12502
rthumb 25.5904 -28.3008
lclavicle 1.98785e-014 -7.95139e-015
lhumerus -3.83939 -24.3075 77.8675
lradius 85.8103
lwrist 3.13323
lhand 2.68757e-013 -3.18055e-014
lfingers 7.12502
lthumb 25.5904 28.3008
rfemur -30.2451 -7.89011 17.3109
rtibia 39.1183
rfoot 7.27269 12.6986
rtoes -2.9402
lfemur -29.5301 9.15412 -20.4969
ltibia 35.4895
lfoot 7.62222 -2.22054
ltoes -24.7649
81
root 4.96212 22.9672 -14.1406 10.9498 -8.88693 0.949852
lowerback 6.91464 0.673212 -2.75895
upperback 6.42696 0.798467 -2.97116
thorax 2.78119 0.354128 -1.5584
lowerneck 0.00953749 -0.807495 1.5324
upperneck 4.01549 -1.11692 0.612546
head 1.22339 -0.526716 -0.0773593
rclavicle -2.90226e-014 2.3059e-014
rhumerus -17.1815 1.10237 -83.3414
rradius 97.5116
rwrist -187.853
rhand 2.06736e-014 -1.17999e-012
rfingers 7.12502
rthumb 25.5904 -28.3008
lclavicle -2.90226e-014 2.3059e-014
lhumerus -4.39404 -24.2582 78.751
lradius 84.3262
lwrist 3.18904
lhand 2.41722e-013 -1.10683e-012
lfingers 7.12502
lthumb 25.5904 28.3008
rfemur -31.3193 -7.86086 17.4935
rtibia 39.0445
rfoot 7.29213 13.1627
rtoes -0.892019
lfemur -30.4975 9.21445 -20.4617
ltibia 35.3514
lfoot 7.18692 -1.7804
ltoes -24.6663
82
root 4.96923 22.8182 -13.9974 11.1657 -8.79193 0.993375
lowerback 7.17687 0.653302 -2.89393
upperback 6.69193 0.761824 -2.91853
thorax 2.91165 0.32741 -1.42995
lowerneck 0.165365 -0.876921 1.66009
upperneck 3.40277 -1.18962 0.237505
head 1.00223 -0.570863 -0.21043
rclavicle 1.11319e-014 -2.8625e-014
rhumerus -17.711 0.785928 -83.5666
rradius 95.9202
rwrist -187.362
rhand 2.98972e-013 1.54257e-013
rfingers 7.12502
rthumb 25.5904 -28.3008
lclavicle 1.11319e-014 -2.8625e-014
lhumerus -5.14078 -24.1812 79.7295
lradius 82.8098
lwrist 3.4186
lhand 5.64548e-013 -4.91396e-013
lfingers 7.12502
lthumb 25.5904 28.3008
rfemur -32.41 -7.83613 17.5867
rtibia 39.0553
rfoot 7.30744 13.614
rtoes 0.787668
lfemur -31.4248 9.25287 -20.4969
ltibia 35.2192
lfoot 6.71144 -1.16574
ltoes -24.6575
83
root 4.97647 22.657 -13.8541 11.4374 -8.68322 0.93241
lowerback 7.41458 0.635142 -2.89704
upperback 6.94802 0.733925 -2.85459
thorax 3.04811 0.309643 -1.36359
lowerneck 0.322898 -0.87804 1.53667
upperneck 2.78643 -1.18619 0.389948
head 0.786219 -0.573535 -0.139843
rclavicle 1.27222e-014 -1.90833e-014
rhumerus -18.1786 0.429851 -83.7918
rradius 94.1629
rwrist -186.703
rhand 2.59215e-013 8.74653e-014
rfingers 7.12502
rthumb 25.5904 -28.3008
lclavicle 1.27222e-014 -1.90833e-014
lhumerus -5.86734 -24.0832 80.6713
lradius 81.1965
lwrist 3.57091
lhand 4.29375e-014 -3.33958e-013
lfingers 7.12502
lthumb 25.5904 28.3008
rfemur -33.5666 -7.78388 17.796
rtibia 39.1409
rfoot 7.18317 13.8441
rtoes 1.27869
lfemur -32.3507 9.20911 -20.3961
ltibia 35.1114
lfoot 6.15756 -0.38048
ltoes -25.0336
84
root 4.98444 22.4864 -13.71 11.7474 -8.56777 0.806727
lowerback 7.66279 0.617277 -2.86279
upperback 7.19479 0.706412 -2.74451
thorax 3.16906 0.292489 -1.27029
lowerneck 0.329757 -0.848395 1.38005
upperneck 2.23478 -1.14516 0.58318
head 0.617623 -0.556898 -0.053222
rclavicle 2.42517e-014 -2.06736e-014
rhumerus -18.561 0.0895194 -83.9543
rradius 92.2591
rwrist -185.941
rhand 3.57812e-013 1.51076e-013
rfingers 7.12502
rthumb 25.5904 -28.3008
lclavicle 2.42517e-014 -2.06736e-014
lhumerus -6.5959 -23.819 81.6158
lradius 79.4712
lwrist 3.19965
lhand -7.41069e-013 4.45278e-013
lfingers 7.12502
lthumb 25.5904 28.3008
rfemur -34.7308 -7.74773 18.0674
rtibia 39.2704
rfoot 6.97568 13.8769
rtoes 0.914781
lfemur -33.2898 9.15021 -20.2163
ltibia 35.0594
lfoot 5.57502 0.381115
ltoes -25.7644
85
root 4.99249 22.3037 -13.5666 12.0723 -8.43717 0.616746
lowerback 7.92965 0.593104 -2.77263
upperback 7.44503 0.672014 -2.61
thorax 3.28401 0.273608 -1.18261
lowerneck 0.148599 -0.818975 1.39582
upperneck 1.76628 -1.10457 0.555422
head 0.504344 -0.539765 -0.0632523
rclavicle -2.50469e-014 4.77083e-015
rhumerus -18.8943 -0.276492 -84.1049
rradius 90.2942
rwrist -185.012
rhand -5.62958e-013 7.15625e-014
rfingers 7.12502
rthumb 25.5904 -28.3008
lclavicle -2.50469e-014 4.77083e-015
lhumerus -7.27275 -23.3649 82.5569
lradius 77.5983
lwrist 2.31361
lhand -1.76521e-013 7.09264e-013
lfingers 7.12502
lthumb 25.5904 28.3008
rfemur -35.8295 -7.76392 18.4034
rtibia 39.4318
rfoot 6.65978 13.8525
rtoes -0.0383284
lfemur -34.263 9.06675 -19.9614
ltibia 35.0808
lfoot 5.0685 1.05953
ltoes -26.5606
86
root 5.0017 22.1092 -13.4223 12.3891 -8.29792 0.460114
lowerback 8.20502 0.572867 -2.67803
upperback 7.70132 0.643312 -2.493
thorax 3.40169 0.25824 -1.11578
lowerneck -0.146394 -0.808394 1.42662
upperneck 1.28042 -1.09159 0.539339
head 0.40478 -0.536236 -0.0728108
rclavicle -1.94809e-014 -1.82882e-014
rhumerus -19.1829 -0.693157 -84.2037
rradius 88.3465
rwrist -184.09
rhand -1.04004e-012 1.29449e-012
rfingers 7.12502
rthumb 25.5904 -28.3008
lclavicle -1.94809e-014 -1.82882e-014
lhumerus -7.91084 -22.8337 83.4342
lradius 75.6538
lwrist 1.05776
lhand 1.16726e-012 1.34856e-012
lfingers 7.12502
lthumb 25.5904 28.3008
rfemur -36.8584 -7.80711 18.6703
rtibia 39.6177
rfoot 6.36437 13.6912
rtoes -1.00551
lfemur -35.2522 8.88412 -19.7081
ltibia 35.1961
lfoot 4.64528 1.70071
ltoes -27.2824
87
root 5.01033 21.8992 -13.2764 12.731 -8.16982 0.34395
lowerback 8.40171 0.55298 -2.67471
upperback 7.97875 0.613871 -2.33217
thorax 3.5848 0.236457 -0.951691
lowerneck -0.524088 -0.784598 1.32444
upperneck 0.774693 -1.0621 0.579509
head 0.313958 -0.524739 -0.0441817
rclavicle 4.37326e-015 1.66979e-014
rhumerus -19.3809 -1.1005 -84.1829
rradius 86.3545
rwrist -183.204
rhand 6.36111e-015 1.01778e-013
rfingers 7.12502
rthumb 25.5904 -28.3008
lclavicle 4.37326e-015 1.66979e-014
lhumerus -8.49263 -22.141 84.3448
lradius 73.6727
lwrist -0.482318
lhand 2.06736e-013 -2.8625e-014
lfingers 7.12502
lthumb 25.5904 28.3008
rfemur -37.9109 -7.87702 18.8813
rtibia 39.8395
rfoot 6.16449 13.3799
rtoes -2.02413
lfemur -36.2811 8.66148 -19.4864
ltibia 35.4154
lfoot 4.2961 2.3435
ltoes -28.6362
88
root 5.01961 21.6676 -13.1308 13.0658 -8.06857 0.294942
lowerback 8.59002 0.544728 -2.69663
upperback 8.25885 0.599813 -2.23484
thorax 3.77713 0.222571 -0.840078
lowerneck -0.985447 -0.739257 1.28687
upperneck 0.26718 -1.00591 0.717406
head 0.236626 -0.499096 0.00304582
rclavicle -1.27222e-014 -4.77083e-015
rhumerus -19.5573 -1.55813 -84.1799
rradius 84.4503
rwrist -182.327
rhand -6.83819e-013 4.35736e-013
rfingers 7.12502
rthumb 25.5904 -28.3008
lclavicle -1.27222e-014 -4.77083e-015
lhumerus -9.0112 -21.3611 85.1715
lradius 71.6142
lwrist -2.24679
lhand 0 1.0464e-012
lfingers 7.12502
lthumb 25.5904 28.3008
rfemur -38.9729 -8.0005 19.0174
rtibia 40.1058
rfoot 6.30023 12.9355
rtoes -2.77203
lfemur -37.336 8.38365 -19.3225
ltibia 35.7837
lfoot 4.1079 3.06682
ltoes -30.2836
89
root 5.02857 21.421 -12.9845 13.4286 -8.00016 0.34768
lowerback 8.67227 0.548725 -2.83178
upperback 8.55956 0.601233 -2.13746
thorax 4.05037 0.209522 -0.66524
lowerneck -1.47382 -0.692408 1.18464
upperneck -0.402205 -0.944475 0.865733
head 0.115236 -0.472023 0.0641209
rclavicle 6.36111e-015 -1.59028e-015
rhumerus -19.6458 -2.08891 -84.0931
rradius 82.5001
rwrist -181.501
rhand -6.67916e-014 6.36111e-014
rfingers 7.12502
rthumb 25.5904 -28.3008
lclavicle 6.36111e-015 -1.59028e-015
lhumerus -9.44615 -20.4996 85.9767
lradius 69.5689
lwrist -4.05144
lhand -1.7175e-013 1.7175e-013
lfingers 7.12502
lthumb 25.5904 28.3008
rfemur -40.0671 -8.15069 19.0472
rtibia 40.4509
rfoot 6.67089 12.3443
rtoes -3.32475
lfemur -38.4683 8.03684 -19.2486
ltibia 36.3232
lfoot 4.22004 3.87797
ltoes -31.3779
